<svg version="1.1" xmlns="http://www.w3.org/2000/svg" xmlns:xlink="http://www.w3.org/1999/xlink" x="0px" y="0px" width="128px"
	 height="128px" viewBox="0 0 128 128" enable-background="new 0 0 128 128" xml:space="preserve">
<rect fill="#808080" width="128" height="128"/>
<g>
	<path fill="#D38B00" d="M86.542,31.268c-5.635,0-10.203,4.567-10.203,10.202s4.568,10.203,10.203,10.203
		c5.634,0,10.203-4.568,10.203-10.203S92.176,31.268,86.542,31.268z M86.542,46.572c-2.818,0-5.102-2.284-5.102-5.102
		c0-2.817,2.283-5.101,5.102-5.101c2.817,0,5.101,2.284,5.101,5.101C91.643,44.288,89.359,46.572,86.542,46.572z"/>
	<path fill="#FED579" d="M104.495,36.534c-0.463-0.494-0.741-0.809-1.039-1.106c-3.892-3.904-7.785-7.805-11.863-11.892
		c-2.112,0-4.327,0-6.548,0c-0.229,0-0.454,0-0.681,0c0,0-10.191,0-10.463,0c-1.021,1.023-2.148,2.117-3.101,3.083
		C61.433,36.117,27.5,70.164,18.15,79.681c-2.724,2.773-2.885,5.459-0.334,8.043c7.464,7.556,14.976,15.065,22.533,22.528
		c2.382,2.352,5.006,2.281,7.489,0.077c0.381-0.338,0.731-0.711,1.094-1.068c8.593-8.471,41.749-41.493,50.334-49.972
		c1.69-1.669,3.331-3.387,5.23-5.321C104.496,51.673,104.495,38.933,104.495,36.534z M86.542,51.673
		c-5.635,0-10.203-4.568-10.203-10.203s4.568-10.202,10.203-10.202c5.634,0,10.203,4.567,10.203,10.202S92.176,51.673,86.542,51.673
		z"/>
	<path fill="#EF3A17" d="M111.913,44.899c-0.624-1.142-1.82-0.525-2.445-1.519c0-4.063,0.093-8.302-0.019-12.537
		c-0.222-8.425-7.178-15.038-15.604-14.838c-5.728,0.135-9.401,2.524-12.866,7.774c-1.538,3.29-2.296,6.88-1.925,9.638
		c0.048,0.351,0.24,1.29,0.326,1.627c0.478,1.873,1.018,3.002,2.428,4.899c1.823,2.453,4.382,4.919,7.458,5.839
		c1.175-0.417,1.497-1.219,1.918-2.196c-3.412-0.979-4.383-2.073-7.83-6.14c-1.562-1.844-1.616-3.098-1.818-4.865
		c-0.01-0.085-0.021-0.168-0.03-0.253c-0.191-3.303,0.855-6.701,2.449-8.592c0.141-0.213,0.715-0.896,0.715-0.896
		c4.938-6.217,14.459-5.769,19.428,0.463c1.462,1.833,2.352,3.924,2.706,6.229c0.127,0.832,0.108,1.69,0.111,2.537
		c0.009,3.887,0.003,7.774,0.003,11.513c-0.603,0.44-1.153,0.442-1.67,0.422c-0.258-0.01-0.509-0.025-0.753,0.004
		c0.001,0.952,0.001,1.653,0.001,2.583c0.734,0.086,1.52-0.231,2.422,0.417c0,0.687,0,1.521,0,2.356c0,4.835,0,9.67,0.003,14.506
		c0.001,0.593-0.018,1.192,0.059,1.778c0.097,0.753,0.53,1.282,1.342,1.223c0.671-0.049,1.049-0.537,1.107-1.193
		c0.059-0.674,0.053-1.354,0.053-2.033c0.003-5.585,0.003-11.172,0.003-16.829C110.736,46.453,112.399,46.578,111.913,44.899z"/>
</g>
<path d="M38.132,79.686l2.263,2.263l-2.262,2.263l9.051,9.052l-3.395,3.394l-9.051-9.051l-2.263,2.263l-2.263-2.263L38.132,79.686z
	 M47.183,70.635l11.313,11.313l-3.394,3.395l-3.394-3.395l-1.131,1.132l3.394,3.395l-3.394,3.394L39.263,78.555L47.183,70.635z
	 M46.052,79.686l1.697,1.697l0.564-0.565l-0.565-0.565l1.132-1.132l0.565,0.565l0.566-0.565l-1.697-1.697l-0.566,0.565l-0.565-0.565
	l1.132-1.132l-1.131-1.131l-1.131,1.132l1.131,1.131l-1.131,1.132l-1.131-1.132l-1.131,1.132l1.131,1.131l1.131-1.131l0.565,0.565
	L46.052,79.686z M61.891,74.029l-4.525-4.525l3.395-3.395l6.788,6.788l-7.921,7.92L48.314,69.504l7.92-7.92l2.263,2.263
	l-4.524,4.524l6.787,6.789L61.891,74.029z M72.918,67.527l-4.206-4.205l-4.237,4.238l-2.903-2.903l4.237-4.238l-4.205-4.205
	l2.826-2.826l4.205,4.205l4.25-4.25l2.902,2.903l-4.25,4.25l4.206,4.205L72.918,67.527z"/>
</svg>
